<svg width="40" height="40" xmlns="http://www.w3.org/2000/svg" viewBox="0 0 1024 1024">
  <path d="M664.24 377.44c13.04 0 25.68 1.12 38.08 3.04-34.16-158.48-203.68-276.96-402.08-276.96-216.96 0-392.88 147.12-392.88 328.64 0 106.32 56.4 193.76 150.56 261.52l-37.68 113.44 131.84-66.08c47.04 9.28 84.72 18.64 132.16 18.64 12.32 0 24.56-0.56 36.64-1.52-7.68-26.32-12.08-53.84-12.08-82.4 0-165.2 138.16-299.12 307.44-299.12v-0.2zM477.28 279.44c28.16 0 47.04 18.64 47.04 46.64s-18.88 46.72-47.04 46.72c-28.08 0-56.32-18.72-56.32-46.72 0-28 28.24-46.64 56.32-46.64zM224.16 372.8c-28.16 0-56.48-18.72-56.48-46.72 0-28 28.32-46.64 56.48-46.64 28.08 0 47.04 18.64 47.04 46.64s-18.96 46.72-47.04 46.72z" fill="#ffffff"/>
  <path d="M1014.8 675.04c0-155.92-150.56-280.72-318.72-280.72-177.44 0-319.52 124.8-319.52 280.72 0 155.76 142.08 280.64 319.52 280.64 37.68 0 75.36-9.36 113.04-18.64l103.68 56.32-28.08-93.44c75.36-56.32 131.04-130.56 131.04-224.88h-0.96zM600.16 628.48c-18.72 0-37.68-18.64-37.68-37.44 0-18.72 18.96-37.36 37.68-37.36 28.08 0 47.04 18.64 47.04 37.36 0 18.8-18.96 37.44-47.04 37.44z m188.72 0c-18.64 0-37.44-18.64-37.44-37.44 0-18.72 18.8-37.36 37.44-37.36 28.16 0 47.04 18.64 47.04 37.36 0 18.8-18.88 37.44-47.04 37.44z" fill="#ffffff"/>
</svg>
